<svg width="26" height="26" viewBox="0 0 26 26" fill="none" xmlns="http://www.w3.org/2000/svg">
<g clip-path="url(#clip0)">
<path d="M10.2704 23.7772C10.8457 23.7772 11.3121 23.3108 11.3121 22.7355C11.3121 22.1602 10.8457 21.6938 10.2704 21.6938C9.69512 21.6938 9.22875 22.1602 9.22875 22.7355C9.22875 23.3108 9.69512 23.7772 10.2704 23.7772Z" stroke="white" stroke-width="2" stroke-linecap="round" stroke-linejoin="round"/>
<path d="M21.7288 23.7772C22.304 23.7772 22.7704 23.3108 22.7704 22.7355C22.7704 22.1602 22.304 21.6938 21.7288 21.6938C21.1535 21.6938 20.6871 22.1602 20.6871 22.7355C20.6871 23.3108 21.1535 23.7772 21.7288 23.7772Z" stroke="white" stroke-width="2" stroke-linecap="round" stroke-linejoin="round"/>
<path d="M1.93708 1.90222H6.10375L8.89542 15.8501C8.99067 16.3297 9.25157 16.7605 9.63244 17.0671C10.0133 17.3737 10.4899 17.5366 10.9788 17.5272H21.1037C21.5926 17.5366 22.0692 17.3737 22.4501 17.0671C22.8309 16.7605 23.0918 16.3297 23.1871 15.8501L24.8537 7.11055H7.14542" stroke="white" stroke-width="2" stroke-linecap="round" stroke-linejoin="round"/>
</g>
<defs>
<clipPath id="clip0">
<rect width="25" height="25" fill="white" transform="translate(0.895418 0.860535)"/>
</clipPath>
</defs>
</svg>
