<svg width="25" height="23" viewBox="0 0 25 23" fill="none" xmlns="http://www.w3.org/2000/svg">
<path d="M9.69609 22.2611C8.95809 22.2611 8.25031 21.9679 7.72847 21.4461C7.20662 20.9242 6.91345 20.2165 6.91345 19.4785C6.91345 18.7405 7.20662 18.0327 7.72847 17.5108C8.25031 16.989 8.95809 16.6958 9.69609 16.6958C10.4341 16.6958 11.1419 16.989 11.6637 17.5108C12.1856 18.0327 12.4787 18.7405 12.4787 19.4785C12.4787 20.2165 12.1856 20.9242 11.6637 21.4461C11.1419 21.9679 10.4341 22.2611 9.69609 22.2611ZM19.4353 22.2611C18.6973 22.2611 17.9895 21.9679 17.4677 21.4461C16.9459 20.9242 16.6527 20.2165 16.6527 19.4785C16.6527 18.7405 16.9459 18.0327 17.4677 17.5108C17.9895 16.989 18.6973 16.6958 19.4353 16.6958C20.1733 16.6958 20.8811 16.989 21.4029 17.5108C21.9248 18.0327 22.218 18.7405 22.218 19.4785C22.218 20.2165 21.9248 20.9242 21.4029 21.4461C20.8811 21.9679 20.1733 22.2611 19.4353 22.2611ZM1.2953 2.67551C0.947974 2.6643 0.618621 2.51845 0.376889 2.2688C0.135157 2.01915 0 1.68526 0 1.33775C0 0.990246 0.135157 0.656361 0.376889 0.406707C0.618621 0.157053 0.947974 0.0112026 1.2953 0H2.89671C4.15168 0 5.23691 0.870966 5.50961 2.09533L7.25293 9.94515C7.52563 11.1695 8.61086 12.0405 9.86583 12.0405H20.3174L22.3237 4.01256H9.32182C8.97777 3.99687 8.653 3.84914 8.41508 3.60011C8.17715 3.35108 8.04439 3.01992 8.04439 2.67551C8.04439 2.33109 8.17715 1.99993 8.41508 1.7509C8.653 1.50188 8.97777 1.35415 9.32182 1.33845H22.3237C22.7304 1.33833 23.1318 1.43094 23.4974 1.60925C23.863 1.78755 24.1831 2.04686 24.4334 2.36745C24.6837 2.68804 24.8576 3.06148 24.9419 3.45937C25.0262 3.85727 25.0187 4.26915 24.9199 4.6637L22.9136 12.6888C22.769 13.2679 22.4349 13.782 21.9645 14.1493C21.494 14.5166 20.9143 14.7161 20.3174 14.716H9.86583C8.64814 14.7161 7.46681 14.301 6.51694 13.5391C5.56707 12.7772 4.90548 11.714 4.64142 10.5253L2.89671 2.67551H1.2953Z" fill="white"/>
</svg>
